<?xml version="1.0" encoding="UTF-8" standalone="no"?>
<svg
   xmlns:dc="http://purl.org/dc/elements/1.1/"
   xmlns:cc="http://creativecommons.org/ns#"
   xmlns:rdf="http://www.w3.org/1999/02/22-rdf-syntax-ns#"
   xmlns:svg="http://www.w3.org/2000/svg"
   xmlns="http://www.w3.org/2000/svg"
   xmlns:sodipodi="http://sodipodi.sourceforge.net/DTD/sodipodi-0.dtd"
   xmlns:inkscape="http://www.inkscape.org/namespaces/inkscape"
   viewBox="0 0 512 512"
   version="1.1"
   id="svg14"
   sodipodi:docname="ball-bjs.svg"
   inkscape:export-filename="C:\Users\svent\Documents\sven-frankson\marble-run-simulator-core\datas\textures\ball-bjs.png"
   inkscape:export-xdpi="96"
   inkscape:export-ydpi="96"
   inkscape:version="1.0.1 (3bc2e813f5, 2020-09-07)">
  <metadata
     id="metadata20">
    <rdf:RDF>
      <cc:Work
         rdf:about="">
        <dc:format>image/svg+xml</dc:format>
        <dc:type
           rdf:resource="http://purl.org/dc/dcmitype/StillImage" />
        <dc:title>HTML5 Logo</dc:title>
      </cc:Work>
    </rdf:RDF>
  </metadata>
  <defs
     id="defs18" />
  <sodipodi:namedview
     pagecolor="#ffffff"
     bordercolor="#666666"
     borderopacity="1"
     objecttolerance="10"
     gridtolerance="10"
     guidetolerance="10"
     inkscape:pageopacity="0"
     inkscape:pageshadow="2"
     inkscape:window-width="2560"
     inkscape:window-height="1377"
     id="namedview16"
     showgrid="false"
     inkscape:zoom="1.96875"
     inkscape:cx="286.17621"
     inkscape:cy="268.36266"
     inkscape:window-x="1912"
     inkscape:window-y="-8"
     inkscape:window-maximized="1"
     inkscape:current-layer="svg14"
     inkscape:document-rotation="0" />
  <title
     id="title2">HTML5 Logo</title>
  <rect
     style="fill:#d7e9ff;fill-opacity:1;stroke-width:17.0079;stroke-linecap:round;stroke-linejoin:round"
     id="rect845-7"
     width="512"
     height="512"
     x="0"
     y="0" />
  <rect
     style="fill:#bb464b;fill-opacity:1;stroke-width:17.0079;stroke-linecap:round;stroke-linejoin:round"
     id="rect845"
     width="512"
     height="138.15874"
     x="0"
     y="0" />
  <rect
     style="fill:#bb464b;fill-opacity:1;stroke-width:17.0079;stroke-linecap:round;stroke-linejoin:round"
     id="rect845-6"
     width="512"
     height="138.15874"
     x="0"
     y="373.84125" />
  <path
     class="cls-1"
     d="m 256,163.69395 -79.93587,46.1224 v 92.32406 L 256,348.31325 l 79.93587,-46.1224 v -92.35288 z"
     id="path8"
     style="fill:#ffffff;stroke-width:0.999998" />
  <polygon
     class="cls-2"
     points="297.9,108.81 264.5,128.09 299.22,148.14 332.62,128.85 "
     id="polygon10"
     style="fill:#e0684b;stroke-width:1.38761"
     transform="matrix(0.7206624,0,0,0.7206624,96.229146,116.98062)" />
  <polygon
     class="cls-2"
     points="255.09,84.1 221.7,64.81 110.78,128.85 144.18,148.14 "
     id="polygon12"
     style="fill:#e0684b;stroke-width:1.38761"
     transform="matrix(0.7206624,0,0,0.7206624,96.229146,116.98062)" />
  <polygon
     class="cls-2"
     points="221.7,232.98 256.41,212.94 221.7,192.89 186.98,212.94 "
     id="polygon14"
     style="fill:#e0684b;stroke-width:1.38761"
     transform="matrix(0.7206624,0,0,0.7206624,96.229146,116.98062)" />
  <polygon
     class="cls-3"
     points="332.62,128.85 299.22,148.14 299.22,237.65 221.7,282.41 144.18,237.65 144.18,148.14 110.78,128.85 110.78,256.93 221.7,320.97 332.62,256.93 "
     id="polygon16"
     style="fill:#bb464b;stroke-width:1.38761"
     transform="matrix(0.7206624,0,0,0.7206624,96.229146,116.98062)" />
  <polygon
     class="cls-3"
     points="221.7,192.89 256.41,212.94 256.41,172.85 221.7,152.81 186.98,172.85 186.98,212.94 "
     id="polygon18"
     style="fill:#bb464b;stroke-width:1.38761"
     transform="matrix(0.7206624,0,0,0.7206624,96.229146,116.98062)" />
  <polygon
     class="cls-4"
     points="221.7,232.98 221.7,282.41 299.22,237.65 299.22,148.14 256.41,172.85 256.41,212.94 "
     id="polygon20"
     style="fill:#e0ded8;stroke-width:1.38761"
     transform="matrix(0.7206624,0,0,0.7206624,96.229146,116.98062)" />
  <polygon
     class="cls-5"
     points="221.7,232.98 221.7,282.41 144.18,237.65 144.18,148.14 186.98,172.85 186.98,212.94 "
     id="polygon22"
     style="fill:#d5d2ca;stroke-width:1.38761"
     transform="matrix(0.7206624,0,0,0.7206624,96.229146,116.98062)" />
  <polygon
     class="cls-1"
     points="297.9,108.81 264.5,128.09 299.22,148.14 256.41,172.85 221.7,152.81 186.98,172.85 144.18,148.14 255.09,84.1 "
     id="polygon24"
     style="fill:#ffffff;stroke-width:1.38761"
     transform="matrix(0.7206624,0,0,0.7206624,96.229146,116.98062)" />
</svg>
