<?xml version="1.0" encoding="UTF-8" standalone="no"?>
<svg
   xmlns:dc="http://purl.org/dc/elements/1.1/"
   xmlns:cc="http://creativecommons.org/ns#"
   xmlns:rdf="http://www.w3.org/1999/02/22-rdf-syntax-ns#"
   xmlns:svg="http://www.w3.org/2000/svg"
   xmlns="http://www.w3.org/2000/svg"
   xmlns:sodipodi="http://sodipodi.sourceforge.net/DTD/sodipodi-0.dtd"
   xmlns:inkscape="http://www.inkscape.org/namespaces/inkscape"
   viewBox="0 0 512 512"
   version="1.1"
   id="svg14"
   sodipodi:docname="ball-html5.svg"
   inkscape:export-filename="C:\Users\svent\Documents\sven-frankson\marble-run-simulator-core\datas\textures\ball-html5.png"
   inkscape:export-xdpi="96"
   inkscape:export-ydpi="96"
   inkscape:version="1.0.1 (3bc2e813f5, 2020-09-07)">
  <metadata
     id="metadata20">
    <rdf:RDF>
      <cc:Work
         rdf:about="">
        <dc:format>image/svg+xml</dc:format>
        <dc:type
           rdf:resource="http://purl.org/dc/dcmitype/StillImage" />
      </cc:Work>
    </rdf:RDF>
  </metadata>
  <defs
     id="defs18" />
  <sodipodi:namedview
     pagecolor="#ffffff"
     bordercolor="#666666"
     borderopacity="1"
     objecttolerance="10"
     gridtolerance="10"
     guidetolerance="10"
     inkscape:pageopacity="0"
     inkscape:pageshadow="2"
     inkscape:window-width="2560"
     inkscape:window-height="1377"
     id="namedview16"
     showgrid="false"
     inkscape:zoom="1.96875"
     inkscape:cx="286.17621"
     inkscape:cy="268.36266"
     inkscape:window-x="1912"
     inkscape:window-y="-8"
     inkscape:window-maximized="1"
     inkscape:current-layer="svg14"
     inkscape:document-rotation="0" />
  <title
     id="title2">HTML5 Logo</title>
  <rect
     style="fill:#d7e9ff;fill-opacity:1;stroke-width:17.0079;stroke-linecap:round;stroke-linejoin:round"
     id="rect845-7"
     width="512"
     height="512"
     x="0"
     y="0" />
  <path
     d="m 196.71468,153.1745 h 9.23822 v 9.1579 h 8.51523 v -9.1579 h 9.23824 v 27.7147 h -9.23824 v -9.23824 h -8.43489 v 9.23824 h -9.31856 m 39.20222,-18.47646 h -8.15373 v -9.23824 h 25.58587 v 9.23824 h -8.19392 v 18.47646 h -9.23822 m 21.48892,-27.7147 h 9.68006 l 5.9446,9.76039 5.94461,-9.76039 h 9.68006 v 27.7147 h -9.23824 v -13.73685 l -6.46676,9.9612 -6.46675,-9.9612 v 13.73685 h -9.07758 m 35.82826,-27.7147 h 9.23823 v 18.5568 h 13.09418 v 9.1579 h -22.33241"
     id="path4"
     style="stroke-width:1" />
  <path
     fill="#e44d26"
     d="M 196.39333,342.35735 183.13848,193.58172 h 145.72303 l -13.25485,148.6953 -59.72715,16.54848"
     id="path6"
     style="stroke-width:1" />
  <path
     fill="#f16529"
     d="M 256,346.17316 V 205.79224 h 59.56649 l -11.36703,126.92524"
     id="path8"
     style="stroke-width:1" />
  <path
     fill="#ebebeb"
     d="M 210.21052,223.98754 H 256 V 242.223 h -25.7867 l 1.68697,18.67729 H 256 v 18.19529 h -40.80886 m 0.80332,9.15789 h 18.31579 l 1.28533,14.58034 L 256,308.29642 v 19.03878 l -37.43492,-10.44323"
     id="path10"
     style="stroke-width:1" />
  <path
     fill="#ffffff"
     d="M 301.62881,223.98754 H 255.91967 V 242.223 h 44.02217 m -1.64682,18.67729 h -42.37535 v 18.23545 h 22.49308 l -2.1288,23.69807 -20.36428,5.46261 v 18.95844 l 37.35458,-10.36289"
     id="path12"
     style="stroke-width:1" />
  <rect
     style="fill:#e44d26;fill-opacity:1;stroke-width:17.0079;stroke-linecap:round;stroke-linejoin:round"
     id="rect845"
     width="512"
     height="138.15874"
     x="0"
     y="0" />
  <rect
     style="fill:#e44d26;fill-opacity:1;stroke-width:17.0079;stroke-linecap:round;stroke-linejoin:round"
     id="rect845-6"
     width="512"
     height="138.15874"
     x="0"
     y="373.84125" />
  <rect
     style="fill:#e44d26;fill-opacity:1;stroke-width:17.0078;stroke-linecap:round;stroke-linejoin:round"
     id="rect892"
     width="161.01587"
     height="24.102077"
     x="0"
     y="243.94896" />
  <rect
     style="fill:#e44d26;fill-opacity:1;stroke-width:17.0078;stroke-linecap:round;stroke-linejoin:round"
     id="rect892-1"
     width="161.01587"
     height="24.102077"
     x="350.98413"
     y="243.94896" />
</svg>
