<?xml version="1.0" encoding="UTF-8" standalone="no"?>
<svg
   xmlns:dc="http://purl.org/dc/elements/1.1/"
   xmlns:cc="http://creativecommons.org/ns#"
   xmlns:rdf="http://www.w3.org/1999/02/22-rdf-syntax-ns#"
   xmlns:svg="http://www.w3.org/2000/svg"
   xmlns="http://www.w3.org/2000/svg"
   xmlns:sodipodi="http://sodipodi.sourceforge.net/DTD/sodipodi-0.dtd"
   xmlns:inkscape="http://www.inkscape.org/namespaces/inkscape"
   viewBox="0 0 512 512"
   version="1.1"
   id="svg14"
   sodipodi:docname="ball-poki.svg"
   inkscape:export-filename="C:\Users\svent\Documents\sven-frankson\marble-run-simulator-core\datas\textures\ball-bjs.png"
   inkscape:export-xdpi="96"
   inkscape:export-ydpi="96"
   inkscape:version="1.0.1 (3bc2e813f5, 2020-09-07)">
  <metadata
     id="metadata20">
    <rdf:RDF>
      <cc:Work
         rdf:about="">
        <dc:format>image/svg+xml</dc:format>
        <dc:type
           rdf:resource="http://purl.org/dc/dcmitype/StillImage" />
        <dc:title>HTML5 Logo</dc:title>
      </cc:Work>
    </rdf:RDF>
  </metadata>
  <defs
     id="defs18" />
  <sodipodi:namedview
     pagecolor="#ffffff"
     bordercolor="#666666"
     borderopacity="1"
     objecttolerance="10"
     gridtolerance="10"
     guidetolerance="10"
     inkscape:pageopacity="0"
     inkscape:pageshadow="2"
     inkscape:window-width="2560"
     inkscape:window-height="1377"
     id="namedview16"
     showgrid="false"
     inkscape:zoom="1.96875"
     inkscape:cx="286.17621"
     inkscape:cy="268.36266"
     inkscape:window-x="1912"
     inkscape:window-y="-8"
     inkscape:window-maximized="1"
     inkscape:current-layer="svg14"
     inkscape:document-rotation="0" />
  <title
     id="title2">HTML5 Logo</title>
  <rect
     style="fill:#d7e9ff;fill-opacity:1;stroke-width:17.0079;stroke-linecap:round;stroke-linejoin:round"
     id="rect845-7"
     width="512"
     height="512"
     x="0"
     y="0" />
  <rect
     style="fill:#002b50;fill-opacity:1;stroke-width:17.0079;stroke-linecap:round;stroke-linejoin:round"
     id="rect845"
     width="512"
     height="138.15874"
     x="0"
     y="0" />
  <rect
     style="fill:#002b50;fill-opacity:1;stroke-width:17.0079;stroke-linecap:round;stroke-linejoin:round"
     id="rect845-6"
     width="512"
     height="138.15874"
     x="0"
     y="373.84125" />
  <g
     id="Logo-Crop"
     stroke="none"
     stroke-width="2.47958"
     fill="none"
     fill-rule="evenodd"
     transform="matrix(0.40329482,0,0,0.40329482,139.26228,200.92001)">
    <g
       id="logo_main"
       style="stroke-width:2.47958">
      <path
         d="m 541.13,85.77 c 20.81,0 37.75,-17.35 37.75,-38.67 0,-20.47 -17.29,-37.75 -37.75,-37.75 -20.46,0 -37.75,17.29 -37.75,37.75 0,21.32 16.93,38.67 37.75,38.67 z"
         id="Shape"
         fill="#112c4f"
         style="stroke-width:5.61111" />
      <path
         d="m 504.06,99.34 v 110.45 l -34,-73.84 c 15.37,-19.23 21.63,-46.36 22.33,-65.87 v -16 h -60.23 v 15.4 c -0.84,19.64 -7.22,28.8 -24.78,34.51 v -104 L 346.11,0.05 V 44.36 C 323.78,21.58 292.97,9.58 256.55,9.58 c -39.87,0 -72.9,13.81 -95.5,39.91 -6.85389,7.974995 -12.6115,16.830007 -17.12,26.33 -14.81,-15.21 -35.42,-21.7 -59.89,-21.7 h -84 v 219.04 h 56 v -52.28 h 28 c 24.39,0 45,-8.14 59.88,-23.54 4.61104,9.81481 10.57211,18.9365 17.71,27.1 22.62,25.63 55.44,39.14 94.92,39.14 38.64,0 71,-13.5 93.61,-39.06 1.57,-1.77 3.06,-3.62 4.51,-5.48 h 52.71 v -54.35 l 8.08,-1.86 26,56.24 H 578.2 V 99.34 Z m -418,63.81 H 55.98 v -52.72 h 29.25 c 7.58,0 20.23,5.11 20.23,25.32 0.05,13.01 -5.33,27.4 -19.36,27.4 z m 169.92,60.14 c -47.23,0 -85.65,-39.37 -85.65,-87.75 0,-46.42 39.21,-85.65 85.65,-85.65 46.44,0 85.65,39.23 85.65,85.65 0,48.38 -38.42,87.75 -85.65,87.75 z"
         id="path5"
         fill="#002b50"
         style="stroke-width:5.61111" />
      <path
         d="m 255.97,141.88 c -37.88,0 -57,6.65 -64.93,8.69 6.62,30.49 33.21,53.36 64.93,53.36 31.72,0 58.32,-22.87 64.93,-53.36 -7.89,-2.04 -27.05,-8.69 -64.93,-8.69 z"
         id="path7"
         fill="#009cff"
         style="stroke-width:5.61111" />
    </g>
  </g>
</svg>
